<svg xmlns="http://www.w3.org/2000/svg" style="display:none">

  <!-- Watering can -->
  <symbol id="icon-water" viewBox="0 0 48 48" fill="none">
    <path d="M8 20h20a4 4 0 0 1 4 4v4H8v-8z" stroke="currentColor" stroke-width="2.5" stroke-linejoin="round"/>
    <path d="M8 28v8a2 2 0 0 0 2 2h16a2 2 0 0 0 2-2v-8" stroke="currentColor" stroke-width="2.5"/>
    <path d="M28 22c0-4 4-8 8-8" stroke="currentColor" stroke-width="2.5" stroke-linecap="round"/>
    <path d="M36 14h4" stroke="currentColor" stroke-width="2.5" stroke-linecap="round"/>
    <circle cx="14" cy="38" r="1.5" fill="currentColor"/>
    <circle cx="20" cy="38" r="1.5" fill="currentColor"/>
    <circle cx="26" cy="38" r="1.5" fill="currentColor"/>
  </symbol>

  <!-- Sprouting plant -->
  <symbol id="icon-grow" viewBox="0 0 48 48" fill="none">
    <path d="M24 40V22" stroke="currentColor" stroke-width="2.5" stroke-linecap="round"/>
    <path d="M24 30c-6 0-10-4-10-10 6 0 10 4 10 10z" fill="currentColor" opacity="0.3"/>
    <path d="M24 30c-6 0-10-4-10-10 6 0 10 4 10 10z" stroke="currentColor" stroke-width="2.5" stroke-linejoin="round"/>
    <path d="M24 26c6 0 10-4 10-10-6 0-10 4-10 10z" fill="currentColor" opacity="0.3"/>
    <path d="M24 26c6 0 10-4 10-10-6 0-10 4-10 10z" stroke="currentColor" stroke-width="2.5" stroke-linejoin="round"/>
    <path d="M18 40h12" stroke="currentColor" stroke-width="2.5" stroke-linecap="round"/>
  </symbol>

  <!-- Bell / reminder -->
  <symbol id="icon-remind" viewBox="0 0 48 48" fill="none">
    <path d="M24 8a12 12 0 0 1 12 12v8l4 4H8l4-4v-8A12 12 0 0 1 24 8z" stroke="currentColor" stroke-width="2.5" stroke-linejoin="round"/>
    <path d="M20 36a4 4 0 0 0 8 0" stroke="currentColor" stroke-width="2.5" stroke-linecap="round"/>
    <circle cx="24" cy="8" r="2" fill="currentColor"/>
  </symbol>

  <!-- Two figures / connect -->
  <symbol id="icon-connect" viewBox="0 0 48 48" fill="none">
    <circle cx="16" cy="14" r="5" stroke="currentColor" stroke-width="2.5"/>
    <path d="M6 36c0-5.523 4.477-10 10-10s10 4.477 10 10" stroke="currentColor" stroke-width="2.5" stroke-linecap="round"/>
    <circle cx="34" cy="14" r="5" stroke="currentColor" stroke-width="2.5"/>
    <path d="M26 36c0-5.523 4.477-10 10-10 2.09 0 4.04.64 5.66 1.74" stroke="currentColor" stroke-width="2.5" stroke-linecap="round"/>
  </symbol>

  <!-- Flame streak -->
  <symbol id="icon-streak" viewBox="0 0 48 48" fill="none">
    <path d="M24 40c-7 0-12-5-12-12 0-4 2-7 4-9 0 4 2 6 4 6-1-4 1-9 5-12 0 5 4 8 4 12 1-1 2-3 2-5 2 2 5 5 5 9 0 7-5 11-12 11z" stroke="currentColor" stroke-width="2.5" stroke-linejoin="round"/>
    <path d="M24 34c-2 0-4-2-4-4 0-1 1-2 2-2 0 1 1 2 2 2s2-1 2-2c0 2 2 4 2 4-1 1-3 2-4 2z" fill="currentColor" opacity="0.4"/>
  </symbol>

</svg>
